<svg width="29" height="27" viewBox="0 0 29 27" fill="none" xmlns="http://www.w3.org/2000/svg">
<path d="M26.2978 5.70605L25.4051 5.74263L24.5004 2.86459C24.1385 1.71824 23.101 0.949951 21.9188 0.949951C21.6414 0.949951 21.3639 0.998732 21.0985 1.0841L6.75535 5.70605H2.7021C1.20626 5.70605 -6.10352e-05 6.92556 -6.10352e-05 8.43776V24.206C-6.10352e-05 25.7182 1.20626 26.95 2.7021 26.95H26.2978C27.7936 26.95 28.9999 25.7182 28.9999 24.206V8.43776C28.9999 6.92556 27.7936 5.70605 26.2978 5.70605ZM21.6414 2.828C21.7379 2.80361 21.8344 2.79141 21.9188 2.79141C22.3048 2.79141 22.6426 3.04751 22.7633 3.42556L23.5474 5.70605L12.4371 5.80361L21.6414 2.828ZM25.6946 13.267C24.0299 13.267 22.6667 14.6329 22.6667 16.328C22.6667 18.0231 24.0299 19.389 25.6946 19.389L27.1905 19.3402V24.206C27.1905 24.706 26.7924 25.1085 26.2978 25.1085H2.7021C2.20751 25.1085 1.80942 24.706 1.80942 24.206V8.43776C1.80942 7.93776 2.20751 7.53532 2.7021 7.53532H26.2978C26.7924 7.53532 27.1905 7.93776 27.1905 8.43776L27.2387 13.267H25.6946ZM27.2387 17.5597H25.6946C25.0311 17.5597 24.4883 16.9987 24.4883 16.328C24.4883 15.6573 25.0311 15.0963 25.6946 15.0963L27.1905 15.0475L27.2387 17.5597Z" fill="#FF7C65"/>
</svg>
