<svg width="134" height="37" viewBox="0 0 134 37" fill="none" xmlns="http://www.w3.org/2000/svg">
<g clip-path="url(#clip0_165_4026)">
<path d="M45.7544 7.45475H46.5501V1.63473L49.0166 5.18977H49.0564L51.5229 1.65442V7.45475H52.3186V0.118173H51.6224L49.0365 3.84063L46.4506 0.118173H45.7544V7.45475ZM55.9985 7.57293C56.3842 7.57863 56.7658 7.49428 57.1124 7.32673C57.416 7.18615 57.6767 6.96875 57.8683 6.69648V7.45475H58.6142V3.83078C58.6208 3.50611 58.5327 3.18645 58.3606 2.91001C58.1881 2.641 57.9437 2.42455 57.6545 2.28468C57.331 2.1288 56.9748 2.05117 56.6151 2.05818C56.3189 2.05778 56.0253 2.11291 55.7499 2.22067C55.4796 2.32414 55.229 2.47232 55.0089 2.6589C54.8072 2.82477 54.6457 3.03344 54.5365 3.26946L55.2128 3.63382C55.333 3.37767 55.5245 3.16075 55.7648 3.00849C56.0191 2.84508 56.317 2.76103 56.6201 2.76722C56.9482 2.75272 57.2702 2.85783 57.5252 3.06265C57.6381 3.15628 57.7281 3.27405 57.7884 3.4071C57.8487 3.54015 57.8777 3.68501 57.8733 3.83078V4.10652L55.9438 4.42164C55.4564 4.47048 55.0003 4.68237 54.6509 5.02236C54.3835 5.31273 54.2377 5.69298 54.2431 6.08592C54.2384 6.35907 54.3182 6.62712 54.4718 6.85404C54.6296 7.08176 54.8459 7.26364 55.0984 7.3809C55.3808 7.51446 55.6905 7.58185 56.0035 7.57785L55.9985 7.57293ZM55.0338 6.05637C55.0322 5.93997 55.0537 5.82441 55.0973 5.71626C55.1408 5.60812 55.2054 5.50953 55.2874 5.42612C55.518 5.22026 55.8089 5.09262 56.1179 5.06175L57.8683 4.77616V5.17007C57.8722 5.47717 57.7932 5.77972 57.6396 6.04652C57.4881 6.30789 57.2682 6.52393 57.003 6.67186C56.711 6.83104 56.3815 6.91089 56.0482 6.90328C55.7821 6.91434 55.5214 6.82653 55.3172 6.65709C55.2278 6.58418 55.1559 6.49241 55.1069 6.38848C55.0578 6.28455 55.0329 6.17108 55.0338 6.05637ZM63.05 7.57293C63.4431 7.57704 63.8315 7.48932 64.1839 7.31689C64.5173 7.15614 64.7996 6.90738 64.9994 6.598V7.45475H65.7453V0H64.9994V2.97402C64.7798 2.69106 64.4973 2.46193 64.1739 2.30438C63.824 2.13612 63.439 2.05178 63.05 2.05818C62.5756 2.05026 62.1086 2.17483 61.7024 2.41763C61.3086 2.65648 60.986 2.99463 60.7675 3.39748C60.5332 3.83358 60.4151 4.32166 60.4244 4.81555C60.4163 5.30775 60.5343 5.79395 60.7675 6.22871C60.9858 6.63458 61.3105 6.97475 61.7074 7.21348C62.1123 7.45504 62.5774 7.57955 63.05 7.57293ZM63.0898 6.83434C62.7506 6.83961 62.4172 6.74724 62.1301 6.56846C61.847 6.39005 61.617 6.14022 61.4637 5.84465C61.2982 5.5267 61.2145 5.17321 61.22 4.81555C61.2134 4.45621 61.2971 4.10086 61.4637 3.78154C61.6191 3.48716 61.8508 3.23903 62.135 3.06265C62.4209 2.88514 62.7524 2.79284 63.0898 2.79676C63.432 2.79238 63.7684 2.88461 64.0595 3.06265C64.3483 3.2403 64.585 3.48989 64.7458 3.78646C64.9176 4.10247 65.0049 4.45672 64.9994 4.81555C65.0049 5.17439 64.9176 5.52864 64.7458 5.84465C64.585 6.14122 64.3483 6.39081 64.0595 6.56846C63.7684 6.7465 63.432 6.83873 63.0898 6.83434ZM70.201 7.57293C70.543 7.57711 70.8825 7.51523 71.2006 7.39074C71.4864 7.27751 71.7492 7.11403 71.9763 6.9082C72.186 6.72621 72.3553 6.50324 72.4736 6.25333L71.8371 5.9185C71.674 6.19147 71.4535 6.42655 71.1906 6.60785C70.8995 6.79921 70.5552 6.89562 70.206 6.88358C69.893 6.88491 69.5849 6.80694 69.3109 6.65709C69.0328 6.50642 68.7982 6.28775 68.6296 6.0219C68.4463 5.72534 68.3483 5.38483 68.3461 5.03713H72.5433C72.5565 4.95178 72.5665 4.86808 72.5731 4.78601C72.5797 4.70395 72.583 4.63009 72.583 4.56444C72.5832 4.24994 72.5259 3.938 72.414 3.64367C72.3027 3.3473 72.1375 3.07361 71.9266 2.83615C71.7124 2.59499 71.4499 2.4005 71.1558 2.26498C70.831 2.12032 70.4775 2.04965 70.1215 2.05818C69.6605 2.05188 69.2071 2.17478 68.8136 2.4127C68.4254 2.64941 68.1078 2.98421 67.8936 3.38271C67.6621 3.81789 67.5458 4.30408 67.5555 4.79586C67.547 5.29339 67.6668 5.78485 67.9036 6.22378C68.1252 6.63051 68.4532 6.97067 68.8534 7.20856C69.2598 7.45147 69.7264 7.57763 70.201 7.57293ZM70.1215 2.74752C70.4085 2.74467 70.6913 2.81594 70.942 2.95433C71.1864 3.08741 71.392 3.28077 71.5387 3.51565C71.6939 3.76791 71.7764 4.05736 71.7774 4.35271H68.3611C68.3923 4.04739 68.5 3.75461 68.6744 3.50088C68.8363 3.26753 69.053 3.0766 69.3059 2.94448C69.5572 2.81332 69.8374 2.74566 70.1215 2.74752ZM76.6857 7.45475H79.8086C80.4341 7.48848 81.0486 7.28214 81.5243 6.87866C81.7367 6.67875 81.9031 6.43583 82.0121 6.16647C82.1211 5.8971 82.1701 5.60763 82.1558 5.31779C82.1608 4.94236 82.0573 4.57334 81.8574 4.25423C81.654 3.93142 81.3627 3.672 81.017 3.5058C81.2889 3.35106 81.5119 3.12451 81.6612 2.85148C81.8105 2.57845 81.8802 2.26969 81.8624 1.9597C81.8723 1.71067 81.8276 1.46246 81.7315 1.23213C81.6354 1.0018 81.49 0.794797 81.3055 0.625333C80.8894 0.271287 80.3515 0.089645 79.8036 0.118173H76.6906L76.6857 7.45475ZM77.4813 3.22022V0.856755H79.734C80.0789 0.841443 80.4184 0.945942 80.6938 1.15219C80.8164 1.25478 80.9131 1.38435 80.9761 1.53055C81.0392 1.67675 81.0668 1.83552 81.0568 1.99417C81.0625 2.15886 81.0331 2.32289 80.9706 2.47559C80.9081 2.62829 80.8137 2.76624 80.6938 2.88047C80.5647 2.99774 80.4134 3.08857 80.2487 3.14772C80.084 3.20687 79.9091 3.23318 79.734 3.22514L77.4813 3.22022ZM77.4813 6.71617V3.92926H79.8086C80.2193 3.90734 80.6229 4.04115 80.9375 4.30347C81.0786 4.43268 81.1895 4.59082 81.2625 4.76686C81.3355 4.94291 81.3688 5.1326 81.3602 5.32271C81.3701 5.51298 81.3374 5.70307 81.2643 5.87931C81.1912 6.05554 81.0796 6.21355 80.9375 6.34196C80.6209 6.60017 80.2183 6.73189 79.8086 6.71125L77.4813 6.71617ZM84.0753 9.62126C84.3874 9.63081 84.6964 9.55772 84.9705 9.40953C85.2131 9.2708 85.422 9.08083 85.5821 8.85314C85.7415 8.62552 85.8749 8.38112 85.98 8.1244L88.4167 2.16651H87.5912L85.8556 6.52906L84.1102 2.16651H83.3046L85.4379 7.45475L85.2489 7.90775C85.1429 8.20101 84.9692 8.46572 84.7417 8.6808C84.5223 8.82723 84.2597 8.89658 83.9958 8.87776C83.8909 8.87785 83.7861 8.86961 83.6825 8.85314C83.5797 8.83672 83.4952 8.82523 83.4289 8.81867V9.50801C83.5334 9.54699 83.6417 9.57504 83.7521 9.59172C83.859 9.6096 83.967 9.61947 84.0753 9.62126Z" fill="white" fill-opacity="0.5"/>
<path d="M93.7894 15.7949L93.277 18.4361H81.602C81.602 18.3878 81.59 18.3376 81.583 18.2923C81.5022 17.7642 81.2977 17.2621 80.9862 16.826C80.6554 16.3801 80.2153 16.0252 79.7073 15.7949H93.7894Z" fill="white"/>
<path d="M85.8118 19.3962L83.9917 28.7832H87.808L89.6279 19.3962H85.8118Z" fill="white"/>
<path d="M53.3549 23.8455L51.9088 15.7949H47.9941L50.789 28.794L53.3549 23.8455Z" fill="white"/>
<path d="M61.7263 22.8262L60.1927 15.7949H57.5212L50.7849 28.7812V28.79H53.9477L57.7908 21.2279L59.2826 27.5305L61.7263 22.8262Z" fill="white"/>
<path d="M66.375 15.7949L59.6338 28.794H62.7269L69.7108 15.7949H66.375Z" fill="white"/>
<path d="M76.7215 23.7283C76.936 23.6783 77.1472 23.6155 77.354 23.5402C77.9603 23.3258 78.5195 22.9982 79.001 22.5751C79.7993 21.8679 80.3423 20.9217 80.5475 19.8808C80.6417 19.4083 80.6539 18.9234 80.5834 18.4469C80.5123 17.9775 80.3307 17.5312 80.0533 17.1441C79.7275 16.7103 79.2879 16.3731 78.7823 16.1692C78.1202 15.9011 77.4086 15.7732 76.6936 15.7939H67.3058L66.7966 18.4223H74.0878V18.4321H74.4856C75.1191 18.3451 75.7644 18.4127 76.3654 18.6291C76.6784 18.8576 76.7749 19.281 76.6548 19.8994C76.6048 20.2455 76.4627 20.5721 76.243 20.8458C76.0221 21.079 75.7319 21.2367 75.4145 21.2959C74.9231 21.3894 74.4229 21.4303 73.9227 21.418H73.0992L73.4911 19.3972H69.666L67.8458 28.7831H71.671L72.6158 23.9104H73.33L75.1808 28.7831H78.825L76.7215 23.7283Z" fill="white"/>
<path d="M106.46 26.8648C106.254 26.9786 106.023 27.0411 105.787 27.047C105.683 27.0504 105.58 27.0306 105.484 26.989C105.389 26.9474 105.305 26.8851 105.238 26.8067C105.165 26.7089 105.116 26.5958 105.095 26.4762C105.074 26.3566 105.081 26.2338 105.115 26.1173C105.155 25.9105 105.238 25.7143 105.36 25.5418C105.482 25.3693 105.64 25.2245 105.822 25.1168C106.17 24.9087 106.532 24.7267 106.907 24.5722L107.19 23.1099L106.975 23.1778L105.927 23.5028C105.252 23.7014 104.59 23.9422 103.946 24.2236C103.464 24.4363 103.029 24.74 102.665 25.1178C102.309 25.5031 102.072 25.9817 101.984 26.4965C101.912 26.8517 101.923 27.2184 102.015 27.5689C102.118 27.9304 102.356 28.2394 102.681 28.4325C103.134 28.686 103.652 28.805 104.173 28.7753C104.764 28.7741 105.347 28.6351 105.874 28.3695C105.992 28.3072 106.104 28.2355 106.209 28.1549L106.46 26.8648Z" fill="white"/>
<path d="M110.664 26.7406C110.614 26.7427 110.563 26.7329 110.517 26.7122C110.47 26.6914 110.43 26.6602 110.398 26.6211C110.366 26.582 110.343 26.536 110.333 26.4868C110.322 26.4376 110.323 26.3866 110.335 26.3379L111.131 22.259C111.235 21.8918 111.238 21.5036 111.14 21.135C111.041 20.7663 110.844 20.4308 110.569 20.1633C110.04 19.6709 109.283 19.4208 107.475 19.4041H104.62L104.223 21.4553H106.995C107.437 21.4859 107.723 21.6021 107.83 21.8158C107.962 22.1444 107.983 22.5063 107.891 22.8478L107.611 24.2895L107.195 26.4334L106.989 27.5019C106.944 27.6477 106.934 27.8016 106.96 27.9517C106.985 28.1019 107.045 28.2443 107.135 28.368C107.224 28.4916 107.341 28.5933 107.477 28.6651C107.612 28.7369 107.763 28.7769 107.916 28.7821H112.242L112.64 26.7406H110.664Z" fill="white"/>
<path d="M129.065 22.6448C129.007 22.0547 128.816 21.4848 128.508 20.9766C128.193 20.4705 127.739 20.0634 127.199 19.8027C126.57 19.5126 125.881 19.3713 125.187 19.3901C124.514 19.3881 123.846 19.5052 123.214 19.7358C122.651 19.9455 122.127 20.2449 121.662 20.6221C121.373 20.2778 121.013 19.9976 120.607 19.7998C119.978 19.5096 119.289 19.3683 118.595 19.3872C117.922 19.3853 117.254 19.5024 116.623 19.7328C115.972 19.9748 115.373 20.3352 114.856 20.7954C114.326 21.2652 113.881 21.8227 113.542 22.4429C113.19 23.0757 112.942 23.7597 112.807 24.4696C112.794 24.5425 112.779 24.6173 112.772 24.6725L111.976 28.7809H114.96L115.841 24.2382C115.931 23.7508 116.192 23.3107 116.578 22.9959C116.965 22.6812 117.451 22.5121 117.952 22.5187C118.162 22.5024 118.373 22.5332 118.57 22.609C118.766 22.6847 118.943 22.8033 119.087 22.9561C119.231 23.1088 119.338 23.2917 119.401 23.4912C119.464 23.6907 119.48 23.9015 119.449 24.1082L118.543 28.7809H121.56L122.376 24.5711C122.4 24.4481 122.422 24.3246 122.441 24.2007C122.536 23.7206 122.799 23.2889 123.183 22.9814C123.568 22.6738 124.049 22.51 124.544 22.5187C124.754 22.5024 124.965 22.5332 125.162 22.609C125.359 22.6847 125.535 22.8033 125.679 22.9561C125.823 23.1088 125.931 23.2917 125.993 23.4912C126.056 23.6907 126.072 23.9015 126.041 24.1082L125.135 28.7809H128.152L128.954 24.6449C129.103 23.9888 129.14 23.3129 129.065 22.6448Z" fill="white"/>
<path d="M91.665 24.9189H101.142L101.268 24.2719C101.502 23.3413 101.465 22.3639 101.16 21.4535C100.915 20.7813 100.431 20.221 99.7977 19.8778C99.1782 19.556 98.488 19.391 97.7886 19.3972C96.7792 19.3779 95.7783 19.5853 94.8614 20.0038C94.0441 20.3814 93.3365 20.9573 92.8038 21.6779C92.2818 22.3972 91.9256 23.2211 91.7604 24.0916C91.7074 24.3245 91.6743 24.5613 91.6611 24.7997C91.6647 24.8393 91.6659 24.8791 91.665 24.9189ZM95.8293 21.9183C96.2027 21.5706 96.6972 21.379 97.2097 21.3835C97.4274 21.3622 97.6469 21.3999 97.8447 21.4925C98.0425 21.5851 98.2113 21.7292 98.3327 21.9094C98.5595 22.343 98.614 22.8451 98.4857 23.3166H95.0763C95.165 22.7796 95.4308 22.2869 95.8322 21.9153L95.8293 21.9183Z" fill="white"/>
<path d="M95.0873 25.613H91.676C91.6909 25.747 91.7048 25.8809 91.7316 26.0129C91.8429 26.5611 92.098 27.0706 92.4715 27.49C92.859 27.9176 93.3474 28.2436 93.8929 28.4393C94.5146 28.67 95.1743 28.7829 95.8381 28.7722H97.4444L97.903 26.4088H96.5105C96.2248 26.4055 95.9446 26.3308 95.6958 26.1917C95.4471 26.0526 95.2378 25.8535 95.0873 25.613Z" fill="white"/>
<path d="M41.4728 14.4289L35.8037 33.8911L35.5859 34.5479C35.0806 36.0694 34.7624 36.9242 33.9796 36.997H25.4382L28.8795 25.1797L29.2127 24.0345L32.0104 14.428L41.4728 14.4289Z" fill="url(#paint0_linear_165_4026)"/>
<path d="M35.5868 34.5468C35.0815 36.0683 34.7633 36.9231 33.9805 36.996H32.7721L32.1067 36.416L28.8813 25.1787L28.8684 25.1324L29.2155 24.0334L29.2464 24.1319L29.3349 24.4164L29.4741 24.8625C29.5351 25.0595 29.5968 25.2545 29.6591 25.4475L29.8829 26.1477L30.1395 26.9355L30.4219 27.7962L30.7203 28.7022C30.8191 29.0036 30.9249 29.3131 31.0376 29.6309C31.1444 29.9401 31.2527 30.2493 31.3628 30.5585C31.4729 30.8678 31.5816 31.1691 31.689 31.4625C31.7944 31.7488 31.9015 32.0344 32.0103 32.3193C32.111 32.5819 32.2148 32.8446 32.3216 33.1072C32.4164 33.3396 32.5159 33.5693 32.62 33.7965C32.7065 33.9934 32.795 34.1835 32.8905 34.3736C32.9919 34.6099 33.1301 34.8288 33.3002 35.0225C33.4632 35.1856 33.6705 35.2981 33.897 35.3465C34.0206 35.3707 34.1475 35.3731 34.2719 35.3534C34.4484 35.3243 34.6186 35.2657 34.7752 35.1801C35.0776 35.0124 35.3514 34.7987 35.5868 34.5468Z" fill="url(#paint1_linear_165_4026)"/>
<path d="M36.6917 30.8304L41.4657 14.429H32.0989C32.4199 20.1597 33.9865 25.7543 36.6917 30.8304Z" fill="url(#paint2_linear_165_4026)"/>
<path d="M33.9487 36.9981H24.4883C23.5783 36.9134 23.266 35.7809 22.6195 33.7562C22.6026 33.704 21.7244 30.7171 20.7367 27.3315L20.14 25.2979C19.0171 21.4632 17.9311 17.7545 17.9042 17.6699C17.2578 15.6452 16.9454 14.5137 16.0354 14.428H25.4659C26.1502 14.492 26.4963 15.1469 26.9001 16.3286C27.0334 16.7225 27.1736 17.1667 27.3338 17.6689C27.3894 17.8442 32.0222 33.5789 32.0789 33.7542C32.7273 35.7809 33.0396 36.9124 33.9487 36.9981Z" fill="url(#paint3_linear_165_4026)"/>
<path d="M26.2358 33.1297C25.3148 29.8081 22.8035 26.0847 20.3738 26.0847C21.5046 29.948 22.6026 33.696 22.6215 33.7551C23.268 35.7798 23.5803 36.9064 24.4903 36.997H28.767C27.7337 36.6257 26.6903 34.7743 26.2358 33.1297Z" fill="url(#paint4_linear_165_4026)"/>
<path d="M26.9022 16.3297C26.8912 16.3051 26.8783 16.2815 26.8654 16.2579C26.7369 16.0484 26.5493 15.8808 26.3257 15.7758C26.1021 15.6708 25.8523 15.633 25.6072 15.667C25.3718 15.6838 25.1491 15.7793 24.9756 15.9379C24.817 16.104 24.6867 16.2946 24.5898 16.5021L24.5649 16.5494C24.2954 17.0674 24.0597 17.6011 23.8379 18.1408C23.6161 18.6805 23.4092 19.2338 23.2073 19.7843C22.8147 20.8543 22.4427 21.9315 22.0914 23.0154C21.7844 23.949 21.486 24.8855 21.1963 25.825C21.0458 26.3115 20.8976 26.7986 20.7517 27.2864L20.7368 27.3356L19.9769 28.0722C19.9401 28.0722 20.0575 26.4237 20.1411 25.3021L20.2186 24.2838L22.2635 17.6759L23.819 15.1726L24.4764 14.4331H25.471C26.1523 14.4932 26.4984 15.148 26.9022 16.3297Z" fill="url(#paint5_linear_165_4026)"/>
<path d="M16.0375 36.998H7.49605C6.72426 36.9261 6.40202 36.094 5.9107 34.6129L5.672 33.8921L0.00292969 14.4299H9.46331L12.2412 23.9665L12.3227 24.2472L16.0375 36.998Z" fill="url(#paint6_linear_165_4026)"/>
<path d="M12.5683 25.1354L12.5554 25.1817L9.32998 36.419L8.66463 36.999H7.49599C6.7242 36.9271 6.40196 36.095 5.91064 34.6139C6.13022 34.843 6.38335 35.0383 6.66155 35.1929C6.8182 35.2783 6.98837 35.3365 7.16479 35.3652C7.28919 35.385 7.41619 35.3827 7.53976 35.3583C7.76621 35.3094 7.97348 35.1965 8.13651 35.0334C8.30665 34.8397 8.44492 34.6206 8.54626 34.3844C8.64572 34.1943 8.73125 34.0014 8.81679 33.8074L9.11518 33.1179C9.22193 32.8553 9.32569 32.5928 9.42647 32.3302C9.53587 32.0453 9.64329 31.7597 9.74872 31.4734C9.85945 31.1728 9.96819 30.8713 10.0749 30.5693C10.1843 30.2601 12.254 24.0787 12.263 24.0383L12.3247 24.2491L12.5683 25.1354Z" fill="url(#paint7_linear_165_4026)"/>
<path d="M5.32594 32.7015C5.88114 27.2822 7.57503 22.038 10.2988 17.3055L9.46038 14.428H0L5.32594 32.7015Z" fill="url(#paint8_linear_165_4026)"/>
<path d="M23.5703 17.6708C23.5147 17.8461 18.8959 33.636 18.8561 33.7572C18.2096 35.7809 17.8973 36.9134 16.9873 36.999H7.52686C8.43689 36.9143 8.74919 35.7819 9.39566 33.7572C9.45135 33.5819 14.0841 17.8461 14.1408 17.6708C14.7873 15.6471 15.0996 14.5146 16.0096 14.429H25.4391C24.5291 14.5136 24.2168 15.6461 23.5703 17.6708Z" fill="url(#paint9_linear_165_4026)"/>
<path d="M12.0224 36.998C13.183 34.8197 14.1219 32.5409 15.1911 30.3124C16.4063 27.8005 17.8961 25.428 19.6338 23.2377C20.6935 21.916 21.8316 20.6579 23.0422 19.47L23.5703 17.6718C24.2168 15.6481 24.5291 14.5156 25.4391 14.4299H16.0096C15.0996 14.5146 14.7873 15.6471 14.1408 17.6718C14.0851 17.8471 9.45235 33.5828 9.39566 33.7581C8.74919 35.7818 8.43689 36.9143 7.52686 37L12.0224 36.998Z" fill="url(#paint10_linear_165_4026)"/>
<path d="M52.0181 33.4607L53.0525 31.5463H53.3181L52.1415 33.6931V35.0452H51.8879V33.7118L50.7063 31.5463H50.9888L52.0181 33.4607ZM58.3834 33.2903C58.4106 33.7645 58.2625 34.2322 57.9667 34.606C57.8227 34.768 57.6436 34.8956 57.4428 34.9795C57.242 35.0634 57.0247 35.1014 56.807 35.0905C56.5897 35.1013 56.3727 35.0633 56.1722 34.9794C55.9717 34.8955 55.793 34.7679 55.6493 34.606C55.3514 34.2308 55.2018 33.761 55.2286 33.2844C55.2012 32.8095 55.3521 32.3412 55.6523 31.9698C55.7972 31.8095 55.9765 31.6833 56.1769 31.6003C56.3774 31.5173 56.594 31.4797 56.811 31.4902C57.0282 31.4791 57.2451 31.5167 57.4456 31.6003C57.6461 31.6838 57.8249 31.8112 57.9687 31.9727C58.2657 32.3471 58.4146 32.816 58.3874 33.2913L58.3834 33.2903ZM55.4932 33.2903C55.4665 33.7048 55.5861 34.1155 55.8313 34.4524C55.95 34.5908 56.0996 34.7 56.2683 34.7712C56.4369 34.8425 56.62 34.8739 56.803 34.863C56.9861 34.874 57.1693 34.843 57.3384 34.7724C57.5074 34.7019 57.6578 34.5937 57.7777 34.4563C58.0232 34.1185 58.1424 33.7066 58.1149 33.2913C58.1428 32.8778 58.0235 32.4677 57.7777 32.1322C57.6581 31.9958 57.5082 31.8884 57.3399 31.8186C57.1715 31.7487 56.9892 31.7182 56.807 31.7295C56.6242 31.7189 56.4414 31.75 56.2728 31.8205C56.1041 31.8911 55.9541 31.9991 55.8343 32.1362C55.5884 32.4701 55.4691 32.879 55.4972 33.2913L55.4932 33.2903ZM63.3921 31.5463V33.8113C63.402 33.984 63.3758 34.1569 63.315 34.3191C63.2543 34.4812 63.1603 34.6292 63.039 34.7537C62.9059 34.872 62.7504 34.9629 62.5816 35.0212C62.4127 35.0795 62.2339 35.1041 62.0554 35.0935C61.8799 35.1103 61.7028 35.0884 61.5369 35.0294C61.3709 34.9704 61.2203 34.8758 61.0957 34.7522C60.9711 34.6287 60.8757 34.4793 60.8164 34.315C60.757 34.1506 60.7352 33.9752 60.7525 33.8014V31.5463H61.0011V33.8113C60.9864 33.9555 61.0044 34.1011 61.0537 34.2376C61.103 34.3741 61.1824 34.498 61.2861 34.6002C61.3899 34.7025 61.5154 34.7805 61.6534 34.8287C61.7915 34.8769 61.9387 34.894 62.0842 34.8788C62.2265 34.8933 62.3702 34.8763 62.5051 34.8291C62.64 34.782 62.7626 34.7057 62.8641 34.606C62.9656 34.5062 63.0435 34.3854 63.0921 34.2523C63.1408 34.1191 63.159 33.9769 63.1454 33.8359V31.5463H63.3921ZM66.1988 33.5159V35.0403H65.9521V31.5463H66.7935C67.1352 31.5203 67.4761 31.6046 67.7652 31.7866C67.8722 31.8736 67.9566 31.9847 68.0113 32.1107C68.066 32.2366 68.0894 32.3737 68.0795 32.5104C68.0859 32.7225 68.02 32.9306 67.8925 33.1013C67.7465 33.2755 67.5466 33.3974 67.3236 33.4479L68.2834 35.0413H67.985L67.08 33.5228L66.1988 33.5159ZM66.1988 33.3051H66.8731C67.1212 33.3211 67.3672 33.2515 67.5693 33.1082C67.6534 33.0367 67.7195 32.9468 67.7623 32.8456C67.8051 32.7444 67.8235 32.6347 67.816 32.5252C67.8256 32.4162 67.8086 32.3066 67.7666 32.2055C67.7245 32.1044 67.6586 32.0148 67.5743 31.9442C67.3375 31.8032 67.0619 31.7395 66.7866 31.762H66.2018L66.1988 33.3051ZM76.1913 35.0403H75.9924L75.2166 32.341C75.1503 32.1191 75.1019 31.9373 75.0714 31.7955C75.0455 31.934 75.0087 32.0935 74.961 32.2741C74.9132 32.4546 74.6523 33.3783 74.1783 35.0452H73.9793L73.0076 31.5473H73.2662L73.8849 33.8014L73.9525 34.0535C73.9737 34.131 73.9926 34.2036 74.0092 34.2712C74.0258 34.3388 74.041 34.4045 74.0549 34.4681C74.0689 34.5338 74.0814 34.5971 74.0927 34.6582C74.1312 34.4415 74.2134 34.1133 74.3394 33.6734L74.9431 31.5512H75.2166L75.9247 33.9876C76.0069 34.2686 76.0656 34.4951 76.1008 34.6671C76.122 34.5522 76.1488 34.4301 76.1813 34.3007C76.2138 34.1714 76.4625 33.2549 76.9273 31.5512H77.1759L76.1913 35.0403ZM82.3576 33.2864C82.3844 33.7625 82.2344 34.2318 81.9359 34.606C81.7853 34.7594 81.6052 34.8813 81.4062 34.9645C81.2071 35.0478 80.9933 35.0906 80.7773 35.0906C80.5612 35.0906 80.3474 35.0478 80.1483 34.9645C79.9493 34.8813 79.7692 34.7594 79.6186 34.606C79.3206 34.2308 79.1711 33.761 79.1979 33.2844C79.1705 32.8095 79.3214 32.3412 79.6216 31.9698C79.7665 31.8095 79.9457 31.6833 80.1462 31.6003C80.3466 31.5173 80.5632 31.4797 80.7802 31.4902C80.9974 31.4791 81.2144 31.5167 81.4148 31.6003C81.6153 31.6838 81.7941 31.8112 81.9379 31.9727C82.2379 32.3467 82.3893 32.8164 82.3636 33.2933L82.3576 33.2864ZM79.4674 33.2864C79.4408 33.7008 79.5603 34.1116 79.8056 34.4484C79.9319 34.5776 80.0831 34.6803 80.2503 34.7504C80.4175 34.8206 80.5972 34.8567 80.7787 34.8567C80.9603 34.8567 81.14 34.8206 81.3072 34.7504C81.4744 34.6803 81.6256 34.5776 81.7519 34.4484C81.9974 34.1106 82.1166 33.6987 82.0891 33.2835C82.117 32.8699 81.9977 32.4598 81.7519 32.1244C81.6254 31.9962 81.4743 31.8943 81.3074 31.8247C81.1405 31.7552 80.9613 31.7193 80.7802 31.7193C80.5992 31.7193 80.42 31.7552 80.2531 31.8247C80.0862 31.8943 79.9351 31.9962 79.8085 32.1244C79.561 32.4619 79.4426 32.8754 79.4744 33.2913L79.4674 33.2864ZM85.0191 33.5228V35.0472H84.7725V31.5463H85.6159C85.9575 31.5203 86.2984 31.6046 86.5876 31.7866C86.6945 31.8736 86.7789 31.9847 86.8336 32.1107C86.8883 32.2366 86.9117 32.3737 86.9018 32.5104C86.9082 32.7225 86.8423 32.9306 86.7149 33.1013C86.5688 33.2755 86.3689 33.3974 86.146 33.4479L87.1057 35.0413H86.8074L85.8983 33.5228H85.0191ZM85.0191 33.312H85.6934C85.9415 33.328 86.1875 33.2584 86.3896 33.1151C86.4737 33.0436 86.5398 32.9537 86.5826 32.8525C86.6255 32.7513 86.6438 32.6415 86.6363 32.5321C86.6459 32.4231 86.6289 32.3135 86.5869 32.2124C86.5448 32.1113 86.4789 32.0217 86.3946 31.951C86.1578 31.8101 85.8823 31.7464 85.6069 31.7689H85.0191V33.312ZM91.6877 35.0472H91.3894L90.0328 33.1978L89.5613 33.6094V35.0452H89.3147V31.5463H89.5613V33.3652L89.9532 32.9772L91.3376 31.5463H91.6519L90.2048 33.0235L91.6877 35.0472ZM98.7979 32.5537C98.8067 32.7015 98.7796 32.8492 98.7191 32.9845C98.6585 33.1198 98.5662 33.2388 98.4498 33.3317C98.1612 33.5288 97.8141 33.6241 97.4642 33.6025H96.9182V35.0482H96.6715V31.5463H97.5368C98.3789 31.5463 98.7999 31.8815 98.7999 32.5518L98.7979 32.5537ZM96.9182 33.3908H97.4036C97.7046 33.4143 98.0056 33.3455 98.2659 33.1938C98.3587 33.1176 98.4314 33.0201 98.4777 32.9097C98.524 32.7994 98.5424 32.6796 98.5314 32.5606C98.5402 32.4481 98.5221 32.3351 98.4783 32.2308C98.4346 32.1266 98.3666 32.0341 98.2798 31.9609C98.0493 31.8128 97.776 31.7436 97.502 31.7639H96.9172L96.9182 33.3908ZM102.867 33.8123H101.43L100.932 35.0472H100.659L102.08 31.5345H102.237L103.63 35.0472H103.359L102.867 33.8123ZM101.521 33.5917H102.785L102.304 32.3302C102.263 32.2311 102.215 32.0938 102.159 31.9186C102.119 32.06 102.072 32.1991 102.016 32.3351L101.521 33.5917ZM105.981 33.5228V35.0472H105.736V31.5463H106.578C106.919 31.5203 107.26 31.6046 107.549 31.7866C107.656 31.8736 107.741 31.9847 107.795 32.1107C107.85 32.2366 107.873 32.3737 107.863 32.5104C107.87 32.7226 107.804 32.9307 107.677 33.1013C107.53 33.2755 107.331 33.3974 107.108 33.4479L108.067 35.0413H107.769L106.86 33.5228H105.981ZM105.981 33.312H106.655C106.903 33.328 107.149 33.2584 107.351 33.1151C107.435 33.0436 107.501 32.9537 107.544 32.8525C107.587 32.7513 107.605 32.6415 107.598 32.5321C107.608 32.4231 107.591 32.3135 107.549 32.2124C107.506 32.1113 107.441 32.0217 107.356 31.951C107.119 31.8101 106.844 31.7464 106.569 31.7689H105.984L105.981 33.312ZM111.194 35.0472H110.946V31.7758H109.799V31.5463H112.344V31.7758H111.196L111.194 35.0472ZM117.034 35.0472H116.786L114.697 31.9412H114.678C114.698 32.3115 114.707 32.5905 114.707 32.7783V35.0432H114.47V31.5463H114.717L116.806 34.6474H116.821C116.806 34.3605 116.799 34.0877 116.799 33.829V31.5463H117.038L117.034 35.0472ZM121.565 35.0472H119.63V31.5463H121.561V31.7708H119.882V33.0944H121.473V33.3189H119.882V34.8197H121.567L121.565 35.0472ZM124.211 33.5228V35.0472H123.965V31.5463H124.802C125.144 31.5203 125.485 31.6046 125.774 31.7866C125.881 31.8736 125.965 31.9847 126.02 32.1107C126.075 32.2366 126.098 32.3737 126.088 32.5104C126.094 32.7226 126.029 32.9307 125.901 33.1013C125.755 33.2755 125.555 33.3974 125.332 33.4479L126.294 35.0452H125.996L125.089 33.5228H124.211ZM124.211 33.312H124.886C125.134 33.328 125.38 33.2584 125.582 33.1151C125.666 33.0436 125.732 32.9537 125.775 32.8525C125.818 32.7513 125.836 32.6415 125.828 32.5321C125.838 32.4231 125.821 32.3135 125.779 32.2124C125.737 32.1113 125.671 32.0217 125.587 31.951C125.35 31.8101 125.074 31.7464 124.799 31.7689H124.214L124.211 33.312Z" fill="white"/>
<path d="M133.667 17.202C133.667 16.8815 133.538 16.5742 133.309 16.3475C133.08 16.1208 132.77 15.9933 132.446 15.9927C132.123 15.993 131.812 16.1205 131.583 16.3472C131.354 16.574 131.225 16.8814 131.225 17.202C131.225 17.3608 131.256 17.518 131.318 17.6648C131.379 17.8115 131.469 17.9448 131.582 18.0571C131.696 18.1694 131.83 18.2585 131.978 18.3193C132.126 18.38 132.285 18.4113 132.445 18.4113C132.606 18.4115 132.765 18.3802 132.913 18.3194C133.061 18.2585 133.196 18.1693 133.309 18.0568C133.344 18.0211 133.377 17.9833 133.408 17.9436C133.575 17.7315 133.665 17.4706 133.665 17.202H133.667ZM131.901 17.8215V16.5413H132.566C132.661 16.5378 132.756 16.5484 132.848 16.5728C132.912 16.593 132.967 16.634 133.004 16.6889C133.046 16.7499 133.067 16.8223 133.064 16.8958C133.066 16.9578 133.051 17.0192 133.021 17.0734C132.991 17.1277 132.946 17.1728 132.892 17.204C132.848 17.2278 132.802 17.2447 132.753 17.2542C132.788 17.2653 132.822 17.2812 132.852 17.3015C132.876 17.3214 132.897 17.3439 132.916 17.3684C132.937 17.3931 132.956 17.4198 132.972 17.4482L133.165 17.8185H132.712L132.499 17.4246C132.482 17.3871 132.457 17.3536 132.426 17.3261C132.397 17.3061 132.363 17.2958 132.327 17.2966H132.292V17.8145H131.894L131.901 17.8215ZM132.299 17.0622H132.467C132.503 17.0593 132.538 17.0534 132.573 17.0445C132.599 17.0395 132.622 17.0251 132.637 17.0041C132.654 16.9831 132.663 16.9569 132.662 16.9302C132.664 16.9119 132.661 16.8934 132.654 16.8763C132.647 16.8592 132.636 16.8439 132.622 16.8318C132.578 16.8048 132.525 16.793 132.473 16.7983H132.298V17.0573L132.299 17.0622ZM133.997 17.202C133.997 17.5438 133.882 17.8759 133.67 18.1454C133.63 18.1959 133.587 18.2439 133.541 18.2892C133.251 18.5768 132.858 18.7387 132.447 18.7393C132.036 18.7393 131.641 18.5773 131.35 18.289C131.058 18.0007 130.895 17.6097 130.895 17.202C130.895 17.0001 130.935 16.8002 131.013 16.6136C131.091 16.4271 131.205 16.2575 131.349 16.1147C131.494 15.972 131.665 15.8587 131.853 15.7815C132.042 15.7043 132.243 15.6647 132.447 15.6648C132.651 15.6645 132.853 15.7041 133.042 15.7813C133.231 15.8584 133.402 15.9716 133.546 16.1144C133.69 16.2572 133.805 16.4268 133.883 16.6134C133.961 16.8 134.001 17 134.001 17.202H133.997Z" fill="white"/>
</g>
<defs>
<linearGradient id="paint0_linear_165_4026" x1="25.4382" y1="25.7125" x2="41.4728" y2="25.7125" gradientUnits="userSpaceOnUse">
<stop stop-color="#6ABDBD"/>
<stop offset="1" stop-color="#117F7C"/>
</linearGradient>
<linearGradient id="paint1_linear_165_4026" x1="28.8684" y1="30.5147" x2="35.5868" y2="30.5147" gradientUnits="userSpaceOnUse">
<stop stop-color="#579D9E"/>
<stop offset="1" stop-color="#00615E"/>
</linearGradient>
<linearGradient id="paint2_linear_165_4026" x1="30.3285" y1="25.7132" x2="44.6796" y2="22.163" gradientUnits="userSpaceOnUse">
<stop stop-color="#6ABDBD"/>
<stop offset="1" stop-color="#117F7C"/>
</linearGradient>
<linearGradient id="paint3_linear_165_4026" x1="26.1027" y1="11.6293" x2="23.1338" y2="35.327" gradientUnits="userSpaceOnUse">
<stop stop-color="#FF0077"/>
<stop offset="1" stop-color="#C60264"/>
</linearGradient>
<linearGradient id="paint4_linear_165_4026" x1="123.132" y1="30.1659" x2="138.299" y2="30.1659" gradientUnits="userSpaceOnUse">
<stop stop-color="#FF0077"/>
<stop offset="1" stop-color="#C60264"/>
</linearGradient>
<linearGradient id="paint5_linear_165_4026" x1="19.97" y1="21.2527" x2="26.9022" y2="21.2527" gradientUnits="userSpaceOnUse">
<stop stop-color="#FF0077"/>
<stop offset="1" stop-color="#79003B"/>
</linearGradient>
<linearGradient id="paint6_linear_165_4026" x1="0.163275" y1="9.60036" x2="10.0493" y2="19.6078" gradientUnits="userSpaceOnUse">
<stop stop-color="#A7C62A"/>
<stop offset="1" stop-color="#6F8200"/>
</linearGradient>
<linearGradient id="paint7_linear_165_4026" x1="9.27943" y1="27.2785" x2="8.62499" y2="38.7861" gradientUnits="userSpaceOnUse">
<stop offset="0.004" stop-color="#718B32"/>
<stop offset="1" stop-color="#3C4E1F"/>
</linearGradient>
<linearGradient id="paint8_linear_165_4026" x1="4.38729" y1="8.89112" x2="12.2741" y2="31.9303" gradientUnits="userSpaceOnUse">
<stop stop-color="#A7C62A"/>
<stop offset="1" stop-color="#6F8200"/>
</linearGradient>
<linearGradient id="paint9_linear_165_4026" x1="14.7992" y1="8.96699" x2="18.575" y2="32.6266" gradientUnits="userSpaceOnUse">
<stop stop-color="#FDA037"/>
<stop offset="1" stop-color="#C96400"/>
</linearGradient>
<linearGradient id="paint10_linear_165_4026" x1="3.44285" y1="14.2719" x2="46.824" y2="38.254" gradientUnits="userSpaceOnUse">
<stop stop-color="#FDA037"/>
<stop offset="1" stop-color="#C96400"/>
</linearGradient>
<clipPath id="clip0_165_4026">
<rect width="134" height="37" fill="white"/>
</clipPath>
</defs>
</svg>
