<svg width="24" height="24" viewBox="0 0 24 24" fill="none" xmlns="http://www.w3.org/2000/svg">
<path d="M12 22.75C9.87386 22.75 7.79545 22.1195 6.02763 20.9383C4.2598 19.7571 2.88194 18.0782 2.0683 16.1139C1.25466 14.1495 1.04177 11.9881 1.45656 9.90278C1.87135 7.81749 2.89519 5.90202 4.39861 4.39861C5.90202 2.89519 7.81749 1.87135 9.90278 1.45656C11.9881 1.04177 14.1495 1.25466 16.1139 2.0683C18.0782 2.88194 19.7571 4.2598 20.9383 6.02763C22.1195 7.79545 22.75 9.87386 22.75 12C22.7468 14.8501 21.6132 17.5826 19.5979 19.5979C17.5826 21.6132 14.8501 22.7468 12 22.75ZM12 2.75001C10.1705 2.75001 8.38214 3.29251 6.86098 4.30891C5.33983 5.32531 4.15423 6.76997 3.45412 8.46018C2.75401 10.1504 2.57083 12.0103 2.92774 13.8046C3.28465 15.5989 4.16563 17.2471 5.45927 18.5407C6.7529 19.8344 8.4011 20.7154 10.1954 21.0723C11.9897 21.4292 13.8496 21.246 15.5398 20.5459C17.23 19.8458 18.6747 18.6602 19.6911 17.139C20.7075 15.6179 21.25 13.8295 21.25 12C21.2474 9.54757 20.272 7.19633 18.5378 5.46219C16.8037 3.72805 14.4524 2.75265 12 2.75001Z" fill="#FF7C65"/>
<path d="M9.00007 15.75C8.85183 15.7499 8.70696 15.7058 8.58374 15.6234C8.46053 15.541 8.3645 15.4239 8.30779 15.287C8.25107 15.15 8.23622 14.9993 8.26511 14.8539C8.29399 14.7085 8.36532 14.5749 8.47007 14.47L14.4701 8.47003C14.6122 8.33755 14.8003 8.26543 14.9946 8.26885C15.1889 8.27228 15.3743 8.351 15.5117 8.48841C15.6491 8.62582 15.7278 8.81121 15.7312 9.00551C15.7347 9.19981 15.6626 9.38785 15.5301 9.53003L9.53007 15.53C9.46069 15.6 9.37812 15.6554 9.28714 15.6932C9.19616 15.731 9.09858 15.7503 9.00007 15.75Z" fill="#FF7C65"/>
<path d="M15.0001 15.75C14.9016 15.7503 14.804 15.731 14.713 15.6932C14.622 15.6554 14.5395 15.6 14.4701 15.53L8.47009 9.53003C8.33761 9.38785 8.26549 9.19981 8.26892 9.00551C8.27234 8.81121 8.35106 8.62582 8.48847 8.48841C8.62588 8.351 8.81127 8.27228 9.00557 8.26885C9.19987 8.26543 9.38792 8.33755 9.53009 8.47003L15.5301 14.47C15.6348 14.5749 15.7062 14.7085 15.7351 14.8539C15.7639 14.9993 15.7491 15.15 15.6924 15.287C15.6357 15.4239 15.5396 15.541 15.4164 15.6234C15.2932 15.7058 15.1483 15.7499 15.0001 15.75Z" fill="#FF7C65"/>
</svg>
