<svg width="24" height="24" viewBox="0 0 24 24" fill="none" xmlns="http://www.w3.org/2000/svg">
<g opacity="0.5" clip-path="url(#clip0_2019_629)">
<path d="M12 0C5.38 0 0 5.38 0 12C0 18.62 5.38 24 12 24C18.62 24 24 18.62 24 12C24 5.38 18.62 0 12 0ZM12 22.5C6.21 22.5 1.5 17.79 1.5 12C1.5 6.21 6.21 1.5 12 1.5C17.79 1.5 22.5 6.21 22.5 12C22.5 17.79 17.79 22.5 12 22.5Z" fill="black"/>
<path d="M12.03 18.3299C11.97 18.3299 11.91 18.3299 11.84 18.3099C11.51 18.2399 11.28 17.9599 11.26 17.5999C11.26 17.5299 11.26 17.4599 11.27 17.3899C11.29 17.2199 11.31 17.0399 11.19 16.9099C11.09 16.7999 10.94 16.7599 10.78 16.7299C10.7 16.7099 10.63 16.6899 10.57 16.6699C9.48998 16.2699 8.84998 15.4199 8.85998 14.3799C8.85998 13.9499 9.15998 13.6299 9.57998 13.5999C10.01 13.5999 10.32 13.8799 10.36 14.2799C10.4 14.8099 10.7 15.1399 11.26 15.2999C11.52 15.3699 11.77 15.4099 12.02 15.4099C12.36 15.4099 12.69 15.3399 13 15.1999C13.35 15.0399 13.59 14.7299 13.63 14.3599C13.68 13.9799 13.52 13.5999 13.21 13.3599C12.9 13.1199 12.53 12.9799 12.2 12.8599L11.64 12.6599C11.37 12.5699 11.1 12.4699 10.84 12.3699C9.73998 11.9299 9.10998 11.2099 8.91998 10.1899C8.66998 8.83991 9.28998 7.77991 10.63 7.28991C10.68 7.26991 10.74 7.25991 10.81 7.24991C10.98 7.21991 11.15 7.18991 11.22 7.02991C11.28 6.89991 11.27 6.73991 11.26 6.59991V6.41991C11.26 5.98991 11.59 5.65991 12 5.65991C12.1 5.65991 12.2 5.67991 12.3 5.71991C12.6 5.84991 12.75 6.07991 12.75 6.42991C12.75 6.48991 12.75 6.54991 12.74 6.60991C12.74 6.74991 12.71 6.91991 12.79 7.04991C12.87 7.18991 13.03 7.21991 13.17 7.23991C13.24 7.24991 13.3 7.25991 13.36 7.27991C14.34 7.64991 14.91 8.24991 15.1 9.13991C15.14 9.30991 15.14 9.49991 15.12 9.70991C15.08 10.0599 14.77 10.3299 14.4 10.3399C14 10.3399 13.7 10.0999 13.64 9.71991C13.53 9.05991 13.29 8.78991 12.63 8.63991C12.4 8.58991 12.18 8.55991 11.97 8.55991C11.66 8.55991 11.36 8.61991 11.08 8.72991C10.79 8.84991 10.45 9.03991 10.4 9.47991C10.36 9.86991 10.37 10.3499 10.87 10.6799C11.2 10.8999 11.56 11.0299 11.92 11.1599L12.42 11.3299C12.77 11.4499 13.2 11.5899 13.58 11.7999C14.53 12.3099 15.11 13.1399 15.14 14.0099C15.14 15.3499 14.65 16.1499 13.55 16.6199C13.48 16.6499 13.41 16.6799 13.35 16.6999C12.78 16.8999 12.77 16.9199 12.76 17.5299C12.76 17.9899 12.44 18.3299 12.03 18.3299Z" fill="black"/>
</g>
<defs>
<clipPath id="clip0_2019_629">
<rect width="24" height="24" fill="white"/>
</clipPath>
</defs>
</svg>
