<svg width="25" height="24" viewBox="0 0 25 24" fill="none" xmlns="http://www.w3.org/2000/svg">
<path d="M16.09 10.64V9.89C16.09 8.54 14.98 7.4 13.5 7.11V5.74H12V7.11C10.52 7.4 9.41 8.54 9.41 9.89C9.41 10.88 9.81 11.62 10.58 12.1C11.18 12.46 11.91 12.6 12.61 12.74C14.17 13.04 14.59 13.24 14.59 14.11C14.59 14.84 13.75 15.46 12.75 15.46C11.75 15.46 10.91 14.84 10.91 14.11V13.36H9.41V14.11C9.41 15.46 10.52 16.6 12 16.89V18.26H13.5V16.89C14.98 16.6 16.09 15.46 16.09 14.11C16.09 13.12 15.69 12.37 14.92 11.9C14.32 11.54 13.59 11.4 12.89 11.26C11.33 10.96 10.91 10.76 10.91 9.89C10.91 9.16 11.75 8.54 12.75 8.54C13.75 8.54 14.59 9.16 14.59 9.89V10.64H16.09ZM16.09 10.64V9.89C16.09 8.54 14.98 7.4 13.5 7.11V5.74H12V7.11C10.52 7.4 9.41 8.54 9.41 9.89C9.41 10.88 9.81 11.62 10.58 12.1C11.18 12.46 11.91 12.6 12.61 12.74C14.17 13.04 14.59 13.24 14.59 14.11C14.59 14.84 13.75 15.46 12.75 15.46C11.75 15.46 10.91 14.84 10.91 14.11V13.36H9.41V14.11C9.41 15.46 10.52 16.6 12 16.89V18.26H13.5V16.89C14.98 16.6 16.09 15.46 16.09 14.11C16.09 13.12 15.69 12.37 14.92 11.9C14.32 11.54 13.59 11.4 12.89 11.26C11.33 10.96 10.91 10.76 10.91 9.89C10.91 9.16 11.75 8.54 12.75 8.54C13.75 8.54 14.59 9.16 14.59 9.89V10.64H16.09ZM16.09 10.64V9.89C16.09 8.54 14.98 7.4 13.5 7.11V5.74H12V7.11C10.52 7.4 9.41 8.54 9.41 9.89C9.41 10.88 9.81 11.62 10.58 12.1C11.18 12.46 11.91 12.6 12.61 12.74C14.17 13.04 14.59 13.24 14.59 14.11C14.59 14.84 13.75 15.46 12.75 15.46C11.75 15.46 10.91 14.84 10.91 14.11V13.36H9.41V14.11C9.41 15.46 10.52 16.6 12 16.89V18.26H13.5V16.89C14.98 16.6 16.09 15.46 16.09 14.11C16.09 13.12 15.69 12.37 14.92 11.9C14.32 11.54 13.59 11.4 12.89 11.26C11.33 10.96 10.91 10.76 10.91 9.89C10.91 9.16 11.75 8.54 12.75 8.54C13.75 8.54 14.59 9.16 14.59 9.89V10.64H16.09ZM16.09 10.64V9.89C16.09 8.54 14.98 7.4 13.5 7.11V5.74H12V7.11C10.52 7.4 9.41 8.54 9.41 9.89C9.41 10.88 9.81 11.62 10.58 12.1C11.18 12.46 11.91 12.6 12.61 12.74C14.17 13.04 14.59 13.24 14.59 14.11C14.59 14.84 13.75 15.46 12.75 15.46C11.75 15.46 10.91 14.84 10.91 14.11V13.36H9.41V14.11C9.41 15.46 10.52 16.6 12 16.89V18.26H13.5V16.89C14.98 16.6 16.09 15.46 16.09 14.11C16.09 13.12 15.69 12.37 14.92 11.9C14.32 11.54 13.59 11.4 12.89 11.26C11.33 10.96 10.91 10.76 10.91 9.89C10.91 9.16 11.75 8.54 12.75 8.54C13.75 8.54 14.59 9.16 14.59 9.89V10.64H16.09ZM12.75 0C6.13 0 0.75 5.38 0.75 12C0.75 18.62 6.13 24 12.75 24C19.37 24 24.75 18.62 24.75 12C24.75 5.38 19.37 0 12.75 0ZM12.75 22.5C6.96 22.5 2.25 17.79 2.25 12C2.25 6.21 6.96 1.5 12.75 1.5C18.54 1.5 23.25 6.21 23.25 12C23.25 17.79 18.54 22.5 12.75 22.5ZM13.5 7.11V5.74H12V7.11C10.52 7.4 9.41 8.54 9.41 9.89C9.41 10.88 9.81 11.62 10.58 12.1C11.18 12.46 11.91 12.6 12.61 12.74C14.17 13.04 14.59 13.24 14.59 14.11C14.59 14.84 13.75 15.46 12.75 15.46C11.75 15.46 10.91 14.84 10.91 14.11V13.36H9.41V14.11C9.41 15.46 10.52 16.6 12 16.89V18.26H13.5V16.89C14.98 16.6 16.09 15.46 16.09 14.11C16.09 13.12 15.69 12.37 14.92 11.9C14.32 11.54 13.59 11.4 12.89 11.26C11.33 10.96 10.91 10.76 10.91 9.89C10.91 9.16 11.75 8.54 12.75 8.54C13.75 8.54 14.59 9.16 14.59 9.89V10.64H16.09V9.89C16.09 8.54 14.98 7.4 13.5 7.11Z" fill="black"/>
</svg>
