<svg width="24" height="24" viewBox="0 0 24 24" fill="none" xmlns="http://www.w3.org/2000/svg">
<path d="M15 22.75H4C3.27082 22.7495 2.57165 22.4596 2.05604 21.944C1.54043 21.4283 1.25053 20.7292 1.25 20V4C1.25053 3.27082 1.54043 2.57165 2.05604 2.05604C2.57165 1.54043 3.27082 1.25053 4 1.25H15C15.7292 1.25053 16.4283 1.54043 16.944 2.05604C17.4596 2.57165 17.7495 3.27082 17.75 4V12C17.75 12.1989 17.671 12.3897 17.5303 12.5303C17.3897 12.671 17.1989 12.75 17 12.75C16.8011 12.75 16.6103 12.671 16.4697 12.5303C16.329 12.3897 16.25 12.1989 16.25 12V4C16.2495 3.66864 16.1176 3.35101 15.8833 3.1167C15.649 2.88239 15.3314 2.75053 15 2.75H4C3.66864 2.75053 3.35101 2.88239 3.1167 3.1167C2.88239 3.35101 2.75053 3.66864 2.75 4V20C2.75053 20.3314 2.88239 20.649 3.1167 20.8833C3.35101 21.1176 3.66864 21.2495 4 21.25H15C15.1564 21.2528 15.3117 21.2217 15.455 21.159C15.6356 21.0756 15.842 21.0673 16.0287 21.1361C16.2153 21.2048 16.3671 21.3449 16.4505 21.5255C16.5339 21.7061 16.5422 21.9125 16.4734 22.0992C16.4047 22.2858 16.2646 22.4376 16.084 22.521C15.7436 22.6753 15.3737 22.7534 15 22.75Z" fill="#FF7C65"/>
<path d="M13 7.75H6C5.80109 7.75 5.61032 7.67098 5.46967 7.53033C5.32902 7.38968 5.25 7.19891 5.25 7C5.25 6.80109 5.32902 6.61032 5.46967 6.46967C5.61032 6.32902 5.80109 6.25 6 6.25H13C13.1989 6.25 13.3897 6.32902 13.5303 6.46967C13.671 6.61032 13.75 6.80109 13.75 7C13.75 7.19891 13.671 7.38968 13.5303 7.53033C13.3897 7.67098 13.1989 7.75 13 7.75Z" fill="#FF7C65"/>
<path d="M13 11.75H6C5.80109 11.75 5.61032 11.671 5.46967 11.5303C5.32902 11.3897 5.25 11.1989 5.25 11C5.25 10.8011 5.32902 10.6103 5.46967 10.4697C5.61032 10.329 5.80109 10.25 6 10.25H13C13.1989 10.25 13.3897 10.329 13.5303 10.4697C13.671 10.6103 13.75 10.8011 13.75 11C13.75 11.1989 13.671 11.3897 13.5303 11.5303C13.3897 11.671 13.1989 11.75 13 11.75Z" fill="#FF7C65"/>
<path d="M9 15.75H6C5.80109 15.75 5.61032 15.671 5.46967 15.5303C5.32902 15.3897 5.25 15.1989 5.25 15C5.25 14.8011 5.32902 14.6103 5.46967 14.4697C5.61032 14.329 5.80109 14.25 6 14.25H9C9.19891 14.25 9.38968 14.329 9.53033 14.4697C9.67098 14.6103 9.75 14.8011 9.75 15C9.75 15.1989 9.67098 15.3897 9.53033 15.5303C9.38968 15.671 9.19891 15.75 9 15.75Z" fill="#FF7C65"/>
<path d="M16.3331 19.083C16.1344 19.0831 15.9438 19.0043 15.8031 18.864L14.4701 17.53C14.3376 17.3878 14.2655 17.1998 14.2689 17.0055C14.2723 16.8112 14.3511 16.6258 14.4885 16.4884C14.6259 16.351 14.8113 16.2723 15.0056 16.2688C15.1999 16.2654 15.3879 16.3375 15.5301 16.47L16.3301 17.27L18.4671 15.133C18.6086 14.9921 18.8003 14.9131 19 14.9135C19.1997 14.9138 19.3911 14.9935 19.5321 15.135C19.6731 15.2765 19.752 15.4682 19.7517 15.6679C19.7513 15.8677 19.6716 16.0591 19.5301 16.2L16.8631 18.867C16.7219 19.0063 16.5314 19.0839 16.3331 19.083Z" fill="#FF7C65"/>
<path d="M17 22.75C15.8628 22.75 14.7511 22.4128 13.8055 21.781C12.8599 21.1491 12.1229 20.2511 11.6877 19.2004C11.2525 18.1498 11.1386 16.9936 11.3605 15.8782C11.5824 14.7628 12.13 13.7383 12.9341 12.9341C13.7383 12.13 14.7628 11.5824 15.8782 11.3605C16.9936 11.1386 18.1498 11.2525 19.2004 11.6877C20.2511 12.1229 21.1491 12.8599 21.781 13.8055C22.4128 14.7511 22.75 15.8628 22.75 17C22.7481 18.5244 22.1418 19.9859 21.0638 21.0638C19.9859 22.1418 18.5244 22.7481 17 22.75ZM17 12.75C16.1594 12.75 15.3377 12.9993 14.6388 13.4663C13.9399 13.9333 13.3952 14.597 13.0735 15.3736C12.7518 16.1502 12.6677 17.0047 12.8317 17.8291C12.9957 18.6536 13.4004 19.4108 13.9948 20.0052C14.5892 20.5996 15.3464 21.0044 16.1709 21.1683C16.9953 21.3323 17.8498 21.2482 18.6264 20.9265C19.403 20.6048 20.0668 20.0601 20.5337 19.3612C21.0007 18.6623 21.25 17.8406 21.25 17C21.2487 15.8732 20.8005 14.793 20.0037 13.9963C19.207 13.1995 18.1268 12.7513 17 12.75Z" fill="#FF7C65"/>
</svg>
