<svg width="25" height="24" viewBox="0 0 25 24" fill="none" xmlns="http://www.w3.org/2000/svg">
<g opacity="0.5">
<path d="M18.5 22.75H6.50001C5.24072 22.7484 4.03346 22.2475 3.14301 21.357C2.25256 20.4665 1.7516 19.2593 1.75001 18V10.922C1.74835 10.2094 1.90777 9.50573 2.21635 8.86346C2.52493 8.22119 2.97469 7.65698 3.53201 7.21299L9.53201 2.41299C10.3724 1.73496 11.4197 1.36517 12.4995 1.36517C13.5793 1.36517 14.6266 1.73496 15.467 2.41299L21.467 7.21299C22.0243 7.65698 22.4741 8.22119 22.7827 8.86346C23.0913 9.50573 23.2507 10.2094 23.249 10.922V18C23.2474 19.2591 22.7466 20.4662 21.8564 21.3566C20.9661 22.2471 19.7591 22.7481 18.5 22.75ZM4.47001 8.38399C4.08847 8.68768 3.78054 9.07372 3.56927 9.51323C3.358 9.95274 3.24886 10.4343 3.25001 10.922V18C3.25107 18.8616 3.59382 19.6877 4.20308 20.2969C4.81235 20.9062 5.63838 21.2489 6.50001 21.25H18.5C19.3616 21.2489 20.1877 20.9062 20.7969 20.2969C21.4062 19.6877 21.749 18.8616 21.75 18V10.922C21.7512 10.4343 21.642 9.95274 21.4308 9.51323C21.2195 9.07372 20.9116 8.68768 20.53 8.38399L14.53 3.58399C13.9551 3.11975 13.2385 2.86653 12.4995 2.86653C11.7606 2.86653 11.0439 3.11975 10.469 3.58399L4.47001 8.38399Z" fill="black"/>
<path d="M15.5 18.75H9.5C9.30109 18.75 9.11032 18.671 8.96967 18.5303C8.82902 18.3897 8.75 18.1989 8.75 18C8.75 17.8011 8.82902 17.6103 8.96967 17.4697C9.11032 17.329 9.30109 17.25 9.5 17.25H15.5C15.6989 17.25 15.8897 17.329 16.0303 17.4697C16.171 17.6103 16.25 17.8011 16.25 18C16.25 18.1989 16.171 18.3897 16.0303 18.5303C15.8897 18.671 15.6989 18.75 15.5 18.75Z" fill="black"/>
</g>
</svg>
