<svg width="24" height="24" viewBox="0 0 24 24" fill="none" xmlns="http://www.w3.org/2000/svg">
<path d="M20.659 7.75106H17C16.8011 7.75106 16.6103 7.67204 16.4697 7.53139C16.329 7.39073 16.25 7.19997 16.25 7.00106C16.25 6.80214 16.329 6.61138 16.4697 6.47073C16.6103 6.33007 16.8011 6.25106 17 6.25106H19.956L20.168 2.95106C20.1734 2.85217 20.1986 2.75536 20.242 2.66633C20.2853 2.57729 20.3461 2.49783 20.4206 2.43261C20.4951 2.3674 20.582 2.31774 20.676 2.28656C20.77 2.25538 20.8693 2.24331 20.968 2.25106C21.0665 2.25754 21.1628 2.28338 21.2513 2.32711C21.3398 2.37084 21.4189 2.43159 21.4839 2.5059C21.5489 2.5802 21.5986 2.6666 21.6302 2.76015C21.6618 2.85369 21.6747 2.95255 21.668 3.05106L21.41 7.05106C21.3973 7.24135 21.3126 7.41965 21.173 7.54969C21.0335 7.67973 20.8497 7.75173 20.659 7.75106Z" fill="#FF7C65"/>
<path d="M2 12.75C1.80109 12.75 1.61032 12.671 1.46967 12.5304C1.32902 12.3897 1.25 12.1989 1.25 12C1.24997 9.6333 2.03092 7.33269 3.47171 5.45504C4.9125 3.5774 6.93262 2.22765 9.21872 1.61516C11.5048 1.00267 13.9292 1.16166 16.1157 2.06747C18.3022 2.97329 20.1288 4.5753 21.312 6.62503C21.4115 6.79742 21.4384 7.00226 21.3868 7.19448C21.3352 7.38671 21.2094 7.55057 21.037 7.65003C20.8646 7.74949 20.6598 7.77639 20.4675 7.72481C20.2753 7.67324 20.1115 7.54742 20.012 7.37503C18.9937 5.61174 17.422 4.23369 15.5407 3.45456C13.6595 2.67544 11.5737 2.53877 9.60683 3.06575C7.63997 3.59273 5.90193 4.75391 4.66221 6.36924C3.42248 7.98457 2.75034 9.9638 2.75 12C2.75 12.1989 2.67098 12.3897 2.53033 12.5304C2.38968 12.671 2.19891 12.75 2 12.75Z" fill="#FF7C65"/>
<path d="M12.0001 22.75C10.1135 22.7462 8.26094 22.2478 6.62704 21.3047C4.99314 20.3616 3.63501 19.0067 2.68806 17.375C2.58861 17.2026 2.56171 16.9978 2.61328 16.8055C2.66485 16.6133 2.79067 16.4495 2.96307 16.35C3.13546 16.2505 3.34029 16.2236 3.53252 16.2752C3.72474 16.3268 3.88861 16.4526 3.98806 16.625C5.00641 18.3883 6.57807 19.7663 8.45934 20.5455C10.3406 21.3246 12.4264 21.4613 14.3932 20.9343C16.3601 20.4073 18.0981 19.2461 19.3379 17.6308C20.5776 16.0155 21.2497 14.0362 21.2501 12C21.2501 11.8011 21.3291 11.6103 21.4697 11.4697C21.6104 11.329 21.8012 11.25 22.0001 11.25C22.199 11.25 22.3897 11.329 22.5304 11.4697C22.671 11.6103 22.7501 11.8011 22.7501 12C22.7469 14.8501 21.6133 17.5826 19.598 19.5979C17.5826 21.6132 14.8502 22.7468 12.0001 22.75Z" fill="#FF7C65"/>
<path d="M3.08396 21.747H3.03496C2.93644 21.7405 2.84016 21.7147 2.75164 21.671C2.66312 21.6272 2.58408 21.5665 2.51907 21.4922C2.45405 21.4179 2.40432 21.3315 2.37273 21.2379C2.34114 21.1444 2.3283 21.0455 2.33496 20.947L2.59296 16.947C2.60564 16.7572 2.68995 16.5794 2.82882 16.4494C2.9677 16.3194 3.15076 16.2471 3.34096 16.247H6.99996C7.19887 16.247 7.38964 16.326 7.53029 16.4667C7.67094 16.6073 7.74996 16.7981 7.74996 16.997C7.74996 17.1959 7.67094 17.3867 7.53029 17.5273C7.38964 17.668 7.19887 17.747 6.99996 17.747H4.04396L3.83196 21.047C3.81928 21.2368 3.73497 21.4147 3.5961 21.5446C3.45722 21.6746 3.27416 21.7469 3.08396 21.747Z" fill="#FF7C65"/>
<path d="M12.0001 22.75C10.1135 22.7462 8.26094 22.2478 6.62704 21.3047C4.99314 20.3616 3.63501 19.0067 2.68806 17.375C2.58861 17.2026 2.56171 16.9978 2.61328 16.8055C2.66485 16.6133 2.79067 16.4495 2.96307 16.35C3.13546 16.2505 3.34029 16.2236 3.53252 16.2752C3.72474 16.3268 3.88861 16.4526 3.98806 16.625C5.00641 18.3883 6.57807 19.7663 8.45934 20.5455C10.3406 21.3246 12.4264 21.4613 14.3932 20.9343C16.3601 20.4073 18.0981 19.2461 19.3379 17.6308C20.5776 16.0155 21.2497 14.0362 21.2501 12C21.2501 11.8011 21.3291 11.6103 21.4697 11.4697C21.6104 11.329 21.8012 11.25 22.0001 11.25C22.199 11.25 22.3897 11.329 22.5304 11.4697C22.671 11.6103 22.7501 11.8011 22.7501 12C22.7469 14.8501 21.6133 17.5826 19.598 19.5979C17.5826 21.6132 14.8502 22.7468 12.0001 22.75Z" fill="#FF7C65"/>
<path d="M2 12.75C1.80109 12.75 1.61032 12.671 1.46967 12.5304C1.32902 12.3897 1.25 12.1989 1.25 12C1.24997 9.6333 2.03092 7.33269 3.47171 5.45504C4.9125 3.5774 6.93262 2.22765 9.21872 1.61516C11.5048 1.00267 13.9292 1.16166 16.1157 2.06747C18.3022 2.97329 20.1288 4.5753 21.312 6.62503C21.4115 6.79742 21.4384 7.00226 21.3868 7.19448C21.3352 7.38671 21.2094 7.55057 21.037 7.65003C20.8646 7.74949 20.6598 7.77639 20.4675 7.72481C20.2753 7.67324 20.1115 7.54742 20.012 7.37503C18.9937 5.61174 17.422 4.23369 15.5407 3.45456C13.6595 2.67544 11.5737 2.53877 9.60683 3.06575C7.63997 3.59273 5.90193 4.75391 4.66221 6.36924C3.42248 7.98457 2.75034 9.9638 2.75 12C2.75 12.1989 2.67098 12.3897 2.53033 12.5304C2.38968 12.671 2.19891 12.75 2 12.75Z" fill="#FF7C65"/>
</svg>
