<svg width="24" height="24" viewBox="0 0 24 24" fill="none" xmlns="http://www.w3.org/2000/svg">
<path fill-rule="evenodd" clip-rule="evenodd" d="M12 11.8499C9.12002 11.8499 6.77002 9.5099 6.77002 6.6199C6.77002 3.7299 9.12002 1.3999 12 1.3999C14.88 1.3999 17.22 3.7399 17.22 6.6299C17.22 9.5199 14.88 11.8599 12 11.8599V11.8499ZM12 2.8899C9.94002 2.8899 8.27002 4.5599 8.27002 6.6199C8.27002 8.6799 9.94002 10.3499 12 10.3499C14.06 10.3499 15.73 8.6799 15.73 6.6199C15.73 4.5599 14.06 2.8899 12 2.8899Z" fill="black"/>
<path fill-rule="evenodd" clip-rule="evenodd" d="M2.1499 22.6C1.7399 22.6 1.3999 22.27 1.3999 21.85V19.16C1.3999 15.78 4.1499 13.04 7.5199 13.04H16.4799C19.8599 13.04 22.5999 15.79 22.5999 19.16V21.85C22.5999 22.26 22.2699 22.6 21.8499 22.6H2.1499ZM7.5199 14.54C4.9699 14.54 2.8899 16.62 2.8899 19.17V21.11H21.1099V19.17C21.1099 16.62 19.0299 14.54 16.4799 14.54H7.5199Z" fill="black"/>
<rect x="8" y="18" width="8" height="1.5" rx="0.75" fill="#FF7C65"/>
</svg>
