<svg width="24" height="24" viewBox="0 0 24 24" fill="none" xmlns="http://www.w3.org/2000/svg">
<g clip-path="url(#clip0_1087_1232)">
<path d="M8.625 23.25C8.10583 23.25 7.59831 23.096 7.16663 22.8076C6.73495 22.5192 6.3985 22.1092 6.19982 21.6295C6.00114 21.1499 5.94915 20.6221 6.05044 20.1129C6.15173 19.6037 6.40173 19.136 6.76885 18.7688C7.13596 18.4017 7.60369 18.1517 8.11289 18.0504C8.62209 17.9492 9.14989 18.0011 9.62955 18.1998C10.1092 18.3985 10.5192 18.735 10.8076 19.1666C11.096 19.5983 11.25 20.1058 11.25 20.625C11.25 21.3212 10.9734 21.9889 10.4812 22.4812C9.98887 22.9734 9.32119 23.25 8.625 23.25ZM8.625 19.5C8.4025 19.5 8.18499 19.566 7.99999 19.6896C7.81498 19.8132 7.67079 19.9889 7.58564 20.1945C7.50049 20.4 7.47821 20.6262 7.52162 20.8445C7.56503 21.0627 7.67217 21.2632 7.82951 21.4205C7.98684 21.5778 8.1873 21.685 8.40552 21.7284C8.62375 21.7718 8.84995 21.7495 9.05552 21.6644C9.26109 21.5792 9.43679 21.435 9.56041 21.25C9.68402 21.065 9.75 20.8475 9.75 20.625C9.75 20.3266 9.63148 20.0405 9.4205 19.8295C9.20952 19.6185 8.92337 19.5 8.625 19.5Z" fill="#FF7C65"/>
<path d="M17.625 23.25C17.1058 23.25 16.5983 23.096 16.1666 22.8076C15.735 22.5192 15.3985 22.1092 15.1998 21.6295C15.0011 21.1499 14.9492 20.6221 15.0504 20.1129C15.1517 19.6037 15.4017 19.136 15.7688 18.7688C16.136 18.4017 16.6037 18.1517 17.1129 18.0504C17.6221 17.9492 18.1499 18.0011 18.6295 18.1998C19.1092 18.3985 19.5192 18.735 19.8076 19.1666C20.096 19.5983 20.25 20.1058 20.25 20.625C20.25 21.3212 19.9734 21.9889 19.4812 22.4812C18.9889 22.9734 18.3212 23.25 17.625 23.25ZM17.625 19.5C17.4025 19.5 17.185 19.566 17 19.6896C16.815 19.8132 16.6708 19.9889 16.5856 20.1945C16.5005 20.4 16.4782 20.6262 16.5216 20.8445C16.565 21.0627 16.6722 21.2632 16.8295 21.4205C16.9868 21.5778 17.1873 21.685 17.4055 21.7284C17.6238 21.7718 17.85 21.7495 18.0555 21.6644C18.2611 21.5792 18.4368 21.435 18.5604 21.25C18.684 21.065 18.75 20.8475 18.75 20.625C18.75 20.3266 18.6315 20.0405 18.4205 19.8295C18.2095 19.6185 17.9234 19.5 17.625 19.5Z" fill="#FF7C65"/>
<path d="M18 19.5H6.375C5.67881 19.5 5.01113 19.2234 4.51884 18.7312C4.02656 18.2389 3.75 17.5712 3.75 16.875C3.75 16.1788 4.02656 15.5111 4.51884 15.0188C5.01113 14.5266 5.67881 14.25 6.375 14.25H16.5C16.6989 14.25 16.8897 14.329 17.0303 14.4697C17.171 14.6103 17.25 14.8011 17.25 15C17.25 15.1989 17.171 15.3897 17.0303 15.5303C16.8897 15.671 16.6989 15.75 16.5 15.75H6.375C6.07663 15.75 5.79048 15.8685 5.5795 16.0795C5.36853 16.2905 5.25 16.5766 5.25 16.875C5.25 17.1734 5.36853 17.4595 5.5795 17.6705C5.79048 17.8815 6.07663 18 6.375 18H18C18.1989 18 18.3897 18.079 18.5303 18.2197C18.671 18.3603 18.75 18.5511 18.75 18.75C18.75 18.9489 18.671 19.1397 18.5303 19.2803C18.3897 19.421 18.1989 19.5 18 19.5Z" fill="#FF7C65"/>
<path d="M17.6932 15.75H7.5C7.32926 15.7502 7.16358 15.692 7.03035 15.5853C6.89711 15.4785 6.8043 15.3294 6.76725 15.1628L3.9 2.25001H1.5C1.30109 2.25001 1.11032 2.17099 0.96967 2.03034C0.829018 1.88969 0.75 1.69892 0.75 1.50001C0.75 1.3011 0.829018 1.11033 0.96967 0.969682C1.11032 0.82903 1.30109 0.750012 1.5 0.750012H3.9C4.24143 0.748619 4.57299 0.864513 4.83921 1.07831C5.10543 1.2921 5.29016 1.59083 5.3625 1.92451L8.1 14.25H17.6932C17.8479 14.2499 17.9987 14.202 18.125 14.1128C18.2514 14.0237 18.347 13.8976 18.399 13.752L21.7943 4.24801C21.8244 4.15157 21.8737 4.06221 21.9392 3.98528C22.0047 3.90836 22.085 3.84547 22.1755 3.80038C22.2659 3.75529 22.3645 3.72894 22.4653 3.7229C22.5662 3.71686 22.6672 3.73126 22.7624 3.76523C22.8575 3.79921 22.9448 3.85206 23.019 3.92061C23.0933 3.98917 23.1529 4.07201 23.1943 4.16417C23.2357 4.25633 23.258 4.3559 23.26 4.45692C23.262 4.55793 23.2435 4.65831 23.2057 4.75201L19.8113 14.2568C19.6552 14.6936 19.368 15.0716 18.9888 15.3389C18.6097 15.6062 18.1572 15.7498 17.6932 15.75Z" fill="#FF7C65"/>
<path d="M13.5001 11.25C13.3012 11.25 13.1104 11.1709 12.9698 11.0302L9.96981 8.03025C9.83319 7.8888 9.7576 7.69935 9.75931 7.5027C9.76101 7.30605 9.83989 7.11794 9.97895 6.97889C10.118 6.83983 10.3061 6.76095 10.5028 6.75924C10.6994 6.75754 10.8889 6.83313 11.0303 6.96975L13.5001 9.4395L15.9698 6.96975C16.1113 6.83313 16.3007 6.75754 16.4974 6.75924C16.694 6.76095 16.8821 6.83983 17.0212 6.97889C17.1602 7.11794 17.2391 7.30605 17.2408 7.5027C17.2425 7.69935 17.1669 7.8888 17.0303 8.03025L14.0303 11.0302C13.8897 11.1709 13.699 11.25 13.5001 11.25Z" fill="#FF7C65"/>
<path d="M13.5 10.5C13.3011 10.5 13.1103 10.421 12.9697 10.2803C12.829 10.1397 12.75 9.94891 12.75 9.75V3.75C12.75 3.55109 12.829 3.36032 12.9697 3.21967C13.1103 3.07902 13.3011 3 13.5 3C13.6989 3 13.8897 3.07902 14.0303 3.21967C14.171 3.36032 14.25 3.55109 14.25 3.75V9.75C14.25 9.94891 14.171 10.1397 14.0303 10.2803C13.8897 10.421 13.6989 10.5 13.5 10.5Z" fill="#FF7C65"/>
</g>
<defs>
<clipPath id="clip0_1087_1232">
<rect width="24" height="24" fill="white"/>
</clipPath>
</defs>
</svg>
