<svg width="31" height="30" viewBox="0 0 31 30" fill="none" xmlns="http://www.w3.org/2000/svg">
<path d="M22.4269 29.6667C20.2711 29.6667 18.2095 28.753 16.7487 27.1629H3.28368C2.7889 27.1629 2.38836 26.7595 2.38836 26.2611V12.959C1.51661 12.8879 0.833344 12.1521 0.833344 11.2503V7.61924C0.833344 6.68181 1.59907 5.9105 2.52973 5.9105H6.28769C5.66333 4.83068 5.60443 3.47793 6.19345 2.33877C6.8296 1.10468 8.0901 0.333374 9.46842 0.333374C10.0574 0.333374 10.6347 0.475769 11.1648 0.748692C12.1426 1.25894 13.191 2.88461 14.0039 4.39163C14.8167 2.88461 15.8652 1.25894 16.843 0.748692C17.3613 0.475769 17.9503 0.333374 18.5276 0.333374C19.5054 0.333374 20.4125 0.713094 21.1075 1.40134C21.8143 2.08958 22.2031 3.02701 22.2149 4.01191C22.2149 4.68828 22.0499 5.34093 21.7083 5.92237H25.4663C26.3969 5.92237 27.1627 6.69368 27.1627 7.63111V11.2622C27.1627 12.1521 26.4794 12.8997 25.6076 12.9709V14.7746C26.609 15.2255 27.5043 15.9019 28.2229 16.7325C29.5894 18.2989 30.2727 20.3042 30.1313 22.3808C30.0018 24.4574 29.0711 26.356 27.5161 27.7325C26.1024 28.9903 24.2882 29.6786 22.4151 29.6786L22.4269 29.6667ZM22.4151 15.8781C19.1402 15.8781 16.466 18.5718 16.466 21.8706C16.466 25.1694 19.1284 27.863 22.4151 27.863C25.6901 27.863 28.3643 25.1694 28.3643 21.8706C28.3643 18.5718 25.7019 15.8781 22.4151 15.8781ZM15.5 25.3593C14.4987 23.3539 14.4044 20.9925 15.2644 18.904V12.9828H12.7316V25.3711H15.4882L15.5 25.3593ZM10.941 25.3593V12.9709H4.19077V25.3593H10.941ZM17.0668 16.246C18.4922 14.8695 20.4125 14.0745 22.4034 14.0745C22.8864 14.0745 23.3576 14.1219 23.8288 14.205V12.9709H17.0668V16.246ZM25.372 11.1554V7.72604H17.0668V11.1554H25.372ZM15.2644 11.1554V7.72604H12.7316V11.1554H15.2644ZM10.941 11.1554V7.72604H2.63575V11.1554H10.941ZM17.9975 5.92237C18.1153 5.92237 18.1977 5.92237 18.2802 5.92237C18.6807 5.92237 19.0695 5.85117 19.4465 5.70878C20.3064 5.246 20.6598 4.13057 20.1886 3.205C19.8706 2.55236 19.2226 2.14891 18.4922 2.14891C18.1977 2.14891 17.915 2.22011 17.6558 2.35063C17.0786 2.64729 16.0419 4.30856 15.2291 5.9105H17.9857L17.9975 5.92237ZM9.4802 2.14891C9.27993 2.14891 9.09144 2.18451 8.90296 2.24384C8.43174 2.3981 8.01942 2.74222 7.79559 3.18127C7.55998 3.63219 7.52464 4.14244 7.67779 4.62895C7.83093 5.11547 8.16079 5.50705 8.60844 5.74438C8.9383 5.86304 9.32705 5.93424 9.72759 5.93424C9.81005 5.93424 9.89251 5.93424 9.97498 5.93424H12.7669C11.9541 4.3323 10.9174 2.67102 10.3402 2.37437C10.0692 2.23197 9.77471 2.16077 9.4802 2.16077V2.14891Z" fill="#FF7C65"/>
</svg>
