<svg width="24" height="24" viewBox="0 0 24 24" fill="none" xmlns="http://www.w3.org/2000/svg">
<g opacity="0.5">
<path d="M18.4341 1.49976H5.56587C3.32335 1.49976 1.5 3.32311 1.5 5.5761V18.4339C1.5 20.6764 3.32335 22.5102 5.56587 22.5102H18.4341C20.6766 22.5102 22.5 20.6764 22.5 18.4339V5.5761C22.5 3.32311 20.6766 1.49976 18.4341 1.49976ZM20.9386 18.4339C20.9386 19.8171 19.8069 20.9384 18.4341 20.9384H5.56587C4.19311 20.9384 3.06138 19.8171 3.06138 18.4339V5.5761C3.06138 4.19287 4.19311 3.07161 5.56587 3.07161H18.4341C19.8069 3.07161 20.9386 4.19287 20.9386 5.5761V18.4339Z" fill="black"/>
<path d="M11.0779 16.6106C10.6482 16.6106 10.2919 16.2543 10.2919 15.8246C10.2919 15.395 10.6482 15.0387 11.0779 15.0387H14.4626C15.4895 15.0387 16.3383 14.2004 16.3383 13.163C16.3383 12.1255 15.5 11.2872 14.4626 11.2872H8.74104L9.06589 11.5911C9.2126 11.7378 9.28595 11.9369 9.28595 12.1465C9.28595 12.3561 9.20212 12.5552 9.05541 12.7019C8.90871 12.8486 8.7096 12.9324 8.50002 12.9324C8.29044 12.9324 8.09134 12.8486 7.94463 12.7019L6.32038 11.0776C6.17368 10.9309 6.08984 10.7318 6.08984 10.5222C6.08984 10.2917 6.18416 10.0926 6.35182 9.93541L7.94463 8.3426C8.09134 8.19589 8.29044 8.11206 8.50002 8.11206C8.7096 8.11206 8.90871 8.19589 9.05541 8.3426C9.20212 8.48931 9.28595 8.68841 9.28595 8.89799C9.28595 9.10757 9.20212 9.30667 9.05541 9.45338L8.78296 9.72583H14.4521C16.3488 9.72583 17.8892 11.2663 17.8892 13.163C17.8892 15.0597 16.3488 16.6106 14.4521 16.6106H11.0674H11.0779Z" fill="black"/>
</g>
</svg>
