<svg width="24" height="24" viewBox="0 0 24 24" fill="none" xmlns="http://www.w3.org/2000/svg">
<path d="M6.99996 7.74999C6.80104 7.74999 6.61028 7.67097 6.46963 7.53032C6.32897 7.38967 6.24996 7.1989 6.24996 6.99999V4.04399L2.94996 3.83199C2.85147 3.82542 2.75523 3.79952 2.66675 3.75576C2.57827 3.71201 2.49927 3.65125 2.43427 3.57696C2.303 3.42693 2.2367 3.2309 2.24996 3.03199C2.26322 2.83308 2.35495 2.64758 2.50498 2.5163C2.65501 2.38503 2.85104 2.31873 3.04996 2.33199L7.04996 2.58999C7.23973 2.60267 7.4176 2.68698 7.54757 2.82585C7.67753 2.96472 7.74987 3.14779 7.74996 3.33799V6.99999C7.74996 7.1989 7.67094 7.38967 7.53029 7.53032C7.38963 7.67097 7.19887 7.74999 6.99996 7.74999Z" fill="#FF7C65"/>
<path d="M11.9999 22.75C9.63317 22.75 7.33257 21.9691 5.45492 20.5283C3.57727 19.0875 2.22753 17.0674 1.61504 14.7813C1.00254 12.4952 1.16154 10.0708 2.06735 7.8843C2.97316 5.69776 4.57518 3.87123 6.62491 2.688C6.7973 2.58854 7.00214 2.56164 7.19436 2.61322C7.38659 2.66479 7.55045 2.79061 7.64991 2.963C7.74936 3.13539 7.77627 3.34023 7.72469 3.53245C7.67312 3.72468 7.5473 3.88854 7.37491 3.988C5.43033 5.10977 3.95989 6.90023 3.23757 9.02579C2.51525 11.1514 2.59031 13.467 3.44877 15.5413C4.30724 17.6157 5.89054 19.3071 7.90369 20.3006C9.91683 21.2941 12.2225 21.5218 14.3911 20.9413C16.5597 20.3608 18.4433 19.0118 19.6909 17.1455C20.9386 15.2791 21.4652 13.0229 21.1726 10.7971C20.88 8.57131 19.7882 6.52779 18.1007 5.0473C16.4131 3.56681 14.2448 2.75034 11.9999 2.75C11.801 2.75 11.6102 2.67098 11.4696 2.53033C11.3289 2.38968 11.2499 2.19891 11.2499 2C11.2499 1.80109 11.3289 1.61032 11.4696 1.46967C11.6102 1.32902 11.801 1.25 11.9999 1.25C14.851 1.25 17.5853 2.38259 19.6013 4.3986C21.6173 6.41462 22.7499 9.14892 22.7499 12C22.7499 14.8511 21.6173 17.5854 19.6013 19.6014C17.5853 21.6174 14.851 22.75 11.9999 22.75Z" fill="#FF7C65"/>
</svg>
