<svg width="24" height="24" viewBox="0 0 24 24" fill="none" xmlns="http://www.w3.org/2000/svg">
<path d="M7.5 21.75C6.90666 21.75 6.32664 21.5741 5.83329 21.2444C5.33994 20.9148 4.95543 20.4462 4.72836 19.8981C4.5013 19.3499 4.44189 18.7467 4.55765 18.1647C4.6734 17.5828 4.95912 17.0482 5.37868 16.6287C5.79824 16.2091 6.33279 15.9234 6.91473 15.8076C7.49667 15.6919 8.09987 15.7513 8.64805 15.9784C9.19623 16.2054 9.66477 16.5899 9.99441 17.0833C10.3241 17.5766 10.5 18.1567 10.5 18.75C10.5 19.5457 10.1839 20.3087 9.62132 20.8713C9.05871 21.4339 8.29565 21.75 7.5 21.75ZM7.5 17.25C7.20333 17.25 6.91332 17.338 6.66665 17.5028C6.41997 17.6676 6.22771 17.9019 6.11418 18.176C6.00065 18.4501 5.97095 18.7517 6.02882 19.0426C6.0867 19.3336 6.22956 19.6009 6.43934 19.8107C6.64912 20.0204 6.91639 20.1633 7.20737 20.2212C7.49834 20.2791 7.79994 20.2494 8.07403 20.1358C8.34812 20.0223 8.58238 19.83 8.74721 19.5834C8.91203 19.3367 9 19.0467 9 18.75C9 18.3522 8.84197 17.9706 8.56066 17.6893C8.27936 17.408 7.89783 17.25 7.5 17.25Z" fill="#FF7C65"/>
<path d="M18 21.75C17.4067 21.75 16.8266 21.5741 16.3333 21.2444C15.8399 20.9148 15.4554 20.4462 15.2284 19.8981C15.0013 19.3499 14.9419 18.7467 15.0576 18.1647C15.1734 17.5828 15.4591 17.0482 15.8787 16.6287C16.2982 16.2091 16.8328 15.9234 17.4147 15.8076C17.9967 15.6919 18.5999 15.7513 19.1481 15.9784C19.6962 16.2054 20.1648 16.5899 20.4944 17.0833C20.8241 17.5766 21 18.1567 21 18.75C21 19.5457 20.6839 20.3087 20.1213 20.8713C19.5587 21.4339 18.7957 21.75 18 21.75ZM18 17.25C17.7033 17.25 17.4133 17.338 17.1666 17.5028C16.92 17.6676 16.7277 17.9019 16.6142 18.176C16.5007 18.4501 16.4709 18.7517 16.5288 19.0426C16.5867 19.3336 16.7296 19.6009 16.9393 19.8107C17.1491 20.0204 17.4164 20.1633 17.7074 20.2212C17.9983 20.2791 18.2999 20.2494 18.574 20.1358C18.8481 20.0223 19.0824 19.83 19.2472 19.5834C19.412 19.3367 19.5 19.0467 19.5 18.75C19.5 18.3522 19.342 17.9706 19.0607 17.6893C18.7794 17.408 18.3978 17.25 18 17.25Z" fill="#FF7C65"/>
<path d="M14.25 19.5H9.75C9.55109 19.5 9.36032 19.421 9.21967 19.2803C9.07902 19.1397 9 18.9489 9 18.75C9 18.5511 9.07902 18.3603 9.21967 18.2197C9.36032 18.079 9.55109 18 9.75 18H13.5V3.75H2.25V18H5.25C5.44891 18 5.63968 18.079 5.78033 18.2197C5.92098 18.3603 6 18.5511 6 18.75C6 18.9489 5.92098 19.1397 5.78033 19.2803C5.63968 19.421 5.44891 19.5 5.25 19.5H2.25C1.85218 19.5 1.47064 19.342 1.18934 19.0607C0.908035 18.7794 0.75 18.3978 0.75 18V3.75C0.75 3.35218 0.908035 2.97064 1.18934 2.68934C1.47064 2.40804 1.85218 2.25 2.25 2.25H13.5C13.8978 2.25 14.2794 2.40804 14.5607 2.68934C14.842 2.97064 15 3.35218 15 3.75V18.75C15 18.9489 14.921 19.1397 14.7803 19.2803C14.6397 19.421 14.4489 19.5 14.25 19.5Z" fill="#FF7C65"/>
<path d="M21.75 19.5H20.25C20.0492 19.5008 19.8561 19.4226 19.7124 19.2823C19.5687 19.142 19.4859 18.9508 19.482 18.75C19.4798 18.6525 19.4971 18.5556 19.5328 18.4649C19.5684 18.3742 19.6219 18.2915 19.6899 18.2217C19.7579 18.1519 19.8391 18.0963 19.9289 18.0582C20.0186 18.0202 20.115 18.0004 20.2125 18H21.75V11.4525L19.0665 6.75H15V18H15.75C15.9489 18 16.1397 18.079 16.2803 18.2197C16.421 18.3603 16.5 18.5511 16.5 18.75C16.5 18.9489 16.421 19.1397 16.2803 19.2803C16.1397 19.421 15.9489 19.5 15.75 19.5H14.25C14.0511 19.5 13.8603 19.421 13.7197 19.2803C13.579 19.1397 13.5 18.9489 13.5 18.75V6C13.5 5.80109 13.579 5.61032 13.7197 5.46967C13.8603 5.32902 14.0511 5.25 14.25 5.25H19.065C19.3285 5.25037 19.5874 5.31981 19.8157 5.45141C20.044 5.58301 20.2338 5.77216 20.3663 6L23.0535 10.7062C23.1805 10.936 23.248 11.1938 23.25 11.4562V18C23.25 18.3978 23.092 18.7794 22.8107 19.0607C22.5294 19.342 22.1478 19.5 21.75 19.5Z" fill="#FF7C65"/>
<path d="M22.5 12.75H14.25C14.0511 12.75 13.8603 12.671 13.7197 12.5303C13.579 12.3897 13.5 12.1989 13.5 12C13.5 11.8011 13.579 11.6103 13.7197 11.4697C13.8603 11.329 14.0511 11.25 14.25 11.25H22.5C22.6989 11.25 22.8897 11.329 23.0303 11.4697C23.171 11.6103 23.25 11.8011 23.25 12C23.25 12.1989 23.171 12.3897 23.0303 12.5303C22.8897 12.671 22.6989 12.75 22.5 12.75Z" fill="#FF7C65"/>
</svg>
