<svg width="25" height="24" viewBox="0 0 25 24" fill="none" xmlns="http://www.w3.org/2000/svg">
<path d="M16.5 22.75H6.5C5.24071 22.7484 4.03345 22.2475 3.143 21.357C2.25254 20.4665 1.75159 19.2593 1.75 18V11C1.75159 9.74071 2.25254 8.53345 3.143 7.643C4.03345 6.75254 5.24071 6.25159 6.5 6.25H16.5C17.7593 6.25159 18.9666 6.75254 19.857 7.643C20.7475 8.53345 21.2484 9.74071 21.25 11V12.5C21.25 12.6989 21.171 12.8897 21.0303 13.0303C20.8897 13.171 20.6989 13.25 20.5 13.25C20.3011 13.25 20.1103 13.171 19.9697 13.0303C19.829 12.8897 19.75 12.6989 19.75 12.5V11C19.7489 10.1384 19.4062 9.31234 18.7969 8.70307C18.1877 8.09381 17.3616 7.75106 16.5 7.75H6.5C5.63837 7.75106 4.81234 8.09381 4.20307 8.70307C3.59381 9.31234 3.25106 10.1384 3.25 11V18C3.25106 18.8616 3.59381 19.6877 4.20307 20.2969C4.81234 20.9062 5.63837 21.2489 6.5 21.25H16.5C17.3616 21.2489 18.1877 20.9062 18.7969 20.2969C19.4062 19.6877 19.7489 18.8616 19.75 18V16.5C19.75 16.3011 19.829 16.1103 19.9697 15.9697C20.1103 15.829 20.3011 15.75 20.5 15.75C20.6989 15.75 20.8897 15.829 21.0303 15.9697C21.171 16.1103 21.25 16.3011 21.25 16.5V18C21.2484 19.2593 20.7475 20.4665 19.857 21.357C18.9666 22.2475 17.7593 22.7484 16.5 22.75Z" fill="black"/>
<path d="M21.5 17.25H17.5C17.036 17.2495 16.5912 17.0649 16.2631 16.7369C15.9351 16.4088 15.7505 15.964 15.75 15.5V13.5C15.7505 13.036 15.9351 12.5912 16.2631 12.2631C16.5912 11.9351 17.036 11.7505 17.5 11.75H21.5C21.964 11.7505 22.4088 11.9351 22.7369 12.2631C23.0649 12.5912 23.2495 13.036 23.25 13.5V15.5C23.2495 15.964 23.0649 16.4088 22.7369 16.7369C22.4088 17.0649 21.964 17.2495 21.5 17.25ZM17.5 13.25C17.4337 13.25 17.3701 13.2763 17.3232 13.3232C17.2763 13.3701 17.25 13.4337 17.25 13.5V15.5C17.25 15.5663 17.2763 15.6299 17.3232 15.6768C17.3701 15.7237 17.4337 15.75 17.5 15.75H21.5C21.5663 15.75 21.6299 15.7237 21.6768 15.6768C21.7237 15.6299 21.75 15.5663 21.75 15.5V13.5C21.75 13.4337 21.7237 13.3701 21.6768 13.3232C21.6299 13.2763 21.5663 13.25 21.5 13.25H17.5Z" fill="#FF7C65"/>
<path d="M16.5 7.74992H6.50003C6.34595 7.74986 6.19563 7.70233 6.06951 7.61381C5.94339 7.5253 5.84759 7.40009 5.79515 7.25521C5.7427 7.11033 5.73615 6.95281 5.77639 6.80407C5.81663 6.65534 5.90169 6.5226 6.02003 6.42392L11.236 2.07692C11.4148 1.92781 11.6216 1.8159 11.8442 1.74775C12.0669 1.6796 12.3009 1.65658 12.5325 1.68005C12.7642 1.70352 12.9888 1.77301 13.1932 1.88443C13.3976 1.99585 13.5778 2.14697 13.723 2.32892L17.085 6.52892C17.174 6.63916 17.2299 6.77235 17.2463 6.91305C17.2627 7.05376 17.239 7.19623 17.1777 7.32399C17.1165 7.45174 17.0204 7.55955 16.9005 7.63493C16.7805 7.71031 16.6417 7.75018 16.5 7.74992ZM8.57203 6.24992H14.939L12.552 3.26592C12.5312 3.23982 12.5053 3.21814 12.4759 3.20217C12.4465 3.1862 12.4143 3.17626 12.381 3.17292C12.3482 3.169 12.3148 3.17196 12.2831 3.1816C12.2515 3.19124 12.2221 3.20735 12.197 3.22892L8.57203 6.24992Z" fill="black"/>
</svg>
